<?xml version="1.0" encoding="utf-8"?>
<!-- Generator: Adobe Illustrator 21.0.2, SVG Export Plug-In . SVG Version: 6.00 Build 0)  -->
<svg version="1.1" id="Layer_1" xmlns="http://www.w3.org/2000/svg" xmlns:xlink="http://www.w3.org/1999/xlink" x="0px" y="0px"
	 viewBox="0 0 195 112" style="enable-background:new 0 0 195 112;" xml:space="preserve">
<style type="text/css">
	.st0{fill:#FFFFFF;}
</style>
<g>
	<path class="st0" d="M159.8,51.6L110.1,2c-2.4-2.4-6.3-2.4-8.8,0c-2.4,2.4-2.4,6.3,0,8.8l20.5,20.5H26.5c-2.1,0-3.7,1.7-3.7,3.7
		c0,2.1,1.7,3.7,3.7,3.7h102.9l11.2,11.2H6.6c-3.4,0-6.2,2.8-6.2,6.2c0,3.4,2.8,6.2,6.2,6.2h133.9l-11.2,11.2H26.5
		c-2.1,0-3.7,1.7-3.7,3.7c0,2.1,1.7,3.7,3.7,3.7h95.4l-20.5,20.5c-2.4,2.4-2.4,6.3,0,8.8c1.2,1.2,2.8,1.8,4.4,1.8
		c1.6,0,3.2-0.6,4.4-1.8l49.6-49.6C162.2,58,162.2,54,159.8,51.6z"/>
	<path class="st0" d="M192.8,51.6l-39.8-39.8c-2.4-2.4-6.3-2.4-8.8,0c-2.4,2.4-2.4,6.3,0,8.8L179.6,56l-35.4,35.4
		c-2.4,2.4-2.4,6.3,0,8.8c1.2,1.2,2.8,1.8,4.4,1.8s3.2-0.6,4.4-1.8l39.8-39.8C195.2,58,195.2,54,192.8,51.6z"/>
</g>
</svg>
